<svg width="29" height="29" viewBox="0 0 29 29" fill="none" xmlns="http://www.w3.org/2000/svg">
<path d="M14.184 28.512C12.144 28.512 10.26 28.152 8.532 27.432C6.804 26.736 5.304 25.752 4.032 24.48C2.76 23.184 1.764 21.672 1.044 19.944C0.348 18.216 0 16.332 0 14.292C0 12.228 0.36 10.332 1.08 8.604C1.8 6.852 2.796 5.34 4.068 4.068C5.364 2.772 6.876 1.776 8.604 1.08C10.332 0.36 12.192 0 14.184 0C16.224 0 18.108 0.36 19.836 1.08C21.588 1.8 23.112 2.808 24.408 4.104C25.704 5.4 26.712 6.924 27.432 8.676C28.152 10.404 28.512 12.276 28.512 14.292C28.512 16.284 28.152 18.144 27.432 19.872C26.736 21.6 25.74 23.112 24.444 24.408C23.172 25.704 21.66 26.712 19.908 27.432C18.18 28.152 16.272 28.512 14.184 28.512ZM13.104 25.74V2.772L11.016 3.168V25.416L13.104 25.74ZM15.3 25.74L17.388 25.416V3.168L15.3 2.772V25.74ZM8.82 24.516V3.996C8.076 4.404 7.392 4.884 6.768 5.436V23.148C7.104 23.364 7.44 23.592 7.776 23.832C8.136 24.048 8.484 24.276 8.82 24.516ZM19.548 24.552L21.636 23.148V5.364L19.548 3.996V24.552ZM23.868 20.736C25.14 18.888 25.776 16.74 25.776 14.292C25.776 11.964 25.14 9.816 23.868 7.848V20.736ZM4.608 20.736V7.884C3.384 9.756 2.772 11.892 2.772 14.292C2.772 15.468 2.916 16.596 3.204 17.676C3.516 18.732 3.984 19.752 4.608 20.736Z" fill="black"/>
</svg>
